<?xml version="1.0" encoding="utf-8"?>
<!-- Generator: Adobe Illustrator 23.0.1, SVG Export Plug-In . SVG Version: 6.00 Build 0)  -->
<svg version="1.1" id="Camada_1" xmlns="http://www.w3.org/2000/svg" xmlns:xlink="http://www.w3.org/1999/xlink" x="0px" y="0px"
	 viewBox="0 0 1280 475" style="enable-background:new 0 0 1280 475;" xml:space="preserve">
<style type="text/css">
	.st0{fill:#00202C;}
</style>
<g>
	<g>
		<path class="st0" d="M16,436.66h1216V59.86H16V436.66z M420.46,416.4H36.04V79.82h384.42V416.4z M1211.67,416.42H440.66V79.9
			h771.01V416.42z"/>
		<path class="st0" d="M962.3,323.03V298.4h-55.94c0.68-1,1.11-1.65,1.55-2.28c17.64-23.78,35.27-50.2,52.89-73.98
			c0.63-0.85,1.5-1.82,1.5-2.8c0.21-5.55,0.11-8.83,0.11-14.45h-98.26v24.85h58.55c-0.6,0.78-0.87,1.2-1.16,1.57
			c-18.45,22.78-36.95,48.18-55.35,70.98c-0.83,1.05-2.13,2.22-2.18,3.39c-0.25,5.74-0.09,11.55-0.09,17.34H962.3z"/>
		<path class="st0" d="M585.66,269.9c0,8.25-0.04,16.54,0.48,24.76c0.44,7.29,3.44,13.62,8.81,18.8
			c8.59,8.29,30.19,11.94,41.05,6.79c0.63-0.31,1.36-1.24,1.4-1.87c0.15-6.57,0.09-13.13,0.09-19.91c-4.29,0-8.19,0.08-12.12,0
			c-8.4-0.18-12.41-4.25-12.41-12.51v-49.92v-3.83h24.35v-27.24h-24.44v-46.52h-27.44v46.69h-24.15v27.13h24.36
			C585.62,245.11,585.57,257.47,585.66,269.9"/>
		<path class="st0" d="M685.47,319.35c0-22.41,0.04-44.86-0.05-67.25c0-5.57,1.83-10.42,5.46-14.58
			c5.16-5.79,11.73-9.27,19.17-11.01c4.79-1.17,9.71-1.54,14.93-2.32v-11.3c0-11,0-11.05-11.16-11.15
			c-10.73-0.15-18.84,5.22-25.79,12.8c-0.72,0.78-1.17,1.68-1.69,2.52c-0.36-0.22-0.69-0.48-0.98-0.7v-11.33h-26.86v118.09h26.96
			V319.35z"/>
		<path class="st0" d="M169.03,279.63c1.02,1.81,2.85,3.52,4.74,4.55c3.72,2.04,8.16,1.02,11.1-1.98c2.94-3,3.67-7.24,1.65-11.19
			c-4.11-7.88-8.37-15.77-12.62-23.65c-0.43-0.82-0.81-1.67-1.38-2.7h107.86c-1.45,0.92-2.22,1.46-3,1.96
			c-30.44,18.49-60.86,36.94-91.3,55.4c-4.75,2.88-6.81,7.95-5.37,13.1c1.5,5.22,5.51,8.14,11.18,8.14
			c28.15,0,56.31-0.03,84.47,0.07c4.16,0,7.35-1.52,9.48-4.88c5.37-8.48,10.62-16.99,15.69-25.61c2.6-4.44,0.92-10.55-3.12-13.14
			c-3.93-2.48-9.39-1.41-12.78,2.55c-0.72,0.85-1.35,1.89-1.92,2.89c-3.19,5.33-6.48,10.58-9.48,15.99c-1,1.79-2.17,2.42-4.2,2.4
			c-13.62-0.07-27.18-0.05-40.77-0.07c-0.92,0-1.84-0.11-3.48-0.2c1.31-0.91,1.93-1.39,2.7-1.83c19.04-11.84,38.06-23.64,57.1-35.45
			c11.79-7.35,23.58-14.61,35.3-21.98c4.2-2.61,5.9-7.4,4.49-12.06c-1.25-4.26-5.12-7.25-9.65-7.25
			c-53.15-0.04-106.34-0.04-159.46,0c-8.13,0-12.62,7.4-8.81,14.64C154.58,252.79,161.75,266.24,169.03,279.63"/>
		<path class="st0" d="M239.26,187.58c16.67,0,30.53,12.56,32.51,28.78h18.81c-2.04-26.61-24.26-47.52-51.31-47.52
			c-27.15,0-49.41,20.91-51.39,47.52h18.83C208.69,200.14,222.51,187.58,239.26,187.58"/>
		<path class="st0" d="M792.02,325.16c27.29,0,50.44-17.3,59.23-41.45h-32.09c-6.3,8.01-16.07,13.18-27.09,13.18
			c-15.8,0-29.09-10.72-33.14-25.24h95.41c0.48-3.11,0.72-6.29,0.72-9.52c0-34.83-28.21-63.05-63.05-63.05
			c-34.77,0-63.03,28.22-63.03,63.05C728.99,296.95,757.26,325.16,792.02,325.16 M792.07,228.08c15.27,0,28.22,9.92,32.7,23.66
			h-65.36C763.97,238,776.86,228.08,792.07,228.08"/>
		<path class="st0" d="M1033.41,324.6c34.55,0,62.56-28.02,62.56-62.58c0-34.53-28.01-62.56-62.56-62.56
			c-34.59,0-62.57,28.03-62.57,62.56C970.84,296.58,998.82,324.6,1033.41,324.6 M1033.41,227.84c18.84,0,34.16,15.31,34.16,34.18
			s-15.32,34.2-34.16,34.2c-18.89,0-34.16-15.32-34.16-34.2S1014.52,227.84,1033.41,227.84"/>
	</g>
</g>
</svg>
